<?xml version="1.0" encoding="UTF-8" standalone="no"?>
<!DOCTYPE svg PUBLIC "-//W3C//DTD SVG 1.1//EN"
 "http://www.w3.org/Graphics/SVG/1.1/DTD/svg11.dtd">
<!-- Generated by graphviz version 12.1.0 (20240811.2233)
 -->
<!-- Title: d_flipflop Pages: 1 -->
<svg width="343pt" height="177pt"
 viewBox="0.00 0.00 343.35 176.50" xmlns="http://www.w3.org/2000/svg" xmlns:xlink="http://www.w3.org/1999/xlink">
<g id="graph0" class="graph" transform="scale(1 1) rotate(0) translate(4 172.5)">
<title>d_flipflop</title>
<polygon fill="white" stroke="none" points="-4,4 -4,-172.5 339.35,-172.5 339.35,4 -4,4"/>
<text text-anchor="middle" x="167.67" y="-7.2" font-family="Times,serif" font-size="14.00">d_flipflop</text>
<!-- n1 -->
<g id="node1" class="node">
<title>n1</title>
<polygon fill="none" stroke="black" points="66.85,-143.04 66.85,-157.96 47.27,-168.5 19.58,-168.5 0,-157.96 0,-143.04 19.58,-132.5 47.27,-132.5 66.85,-143.04"/>
<text text-anchor="middle" x="33.42" y="-145.45" font-family="Times,serif" font-size="14.00">clock</text>
</g>
<!-- c9 -->
<g id="node5" class="node">
<title>c9</title>
<polygon fill="none" stroke="black" points="102.85,-59.75 102.85,-133.25 245.35,-133.25 245.35,-59.75 102.85,-59.75"/>
<text text-anchor="middle" x="115.72" y="-115.95" font-family="Times,serif" font-size="14.00">C</text>
<polyline fill="none" stroke="black" points="102.85,-108.75 128.6,-108.75"/>
<text text-anchor="middle" x="115.72" y="-91.45" font-family="Times,serif" font-size="14.00">D</text>
<polyline fill="none" stroke="black" points="102.85,-84.25 128.6,-84.25"/>
<text text-anchor="middle" x="115.72" y="-66.95" font-family="Times,serif" font-size="14.00">E</text>
<polyline fill="none" stroke="black" points="128.6,-59.75 128.6,-133.25"/>
<text text-anchor="middle" x="174.1" y="-99.7" font-family="Times,serif" font-size="14.00">$99</text>
<text text-anchor="middle" x="174.1" y="-83.2" font-family="Times,serif" font-size="14.00">$_DFFE_PP_</text>
<polyline fill="none" stroke="black" points="219.6,-59.75 219.6,-133.25"/>
<text text-anchor="middle" x="232.47" y="-91.45" font-family="Times,serif" font-size="14.00">Q</text>
</g>
<!-- n1&#45;&gt;c9 -->
<g id="edge1" class="edge">
<title>n1:e&#45;&gt;c9:w</title>
<path fill="none" stroke="black" d="M66.85,-150.5C82.85,-150.5 83.26,-132.85 92.19,-124.86"/>
<polygon fill="black" stroke="black" points="93.21,-128.21 101.42,-121.52 90.83,-121.63 93.21,-128.21"/>
</g>
<!-- n2 -->
<g id="node2" class="node">
<title>n2</title>
<polygon fill="none" stroke="black" points="60.42,-89.04 60.42,-103.96 44.61,-114.5 22.24,-114.5 6.42,-103.96 6.42,-89.04 22.24,-78.5 44.61,-78.5 60.42,-89.04"/>
<text text-anchor="middle" x="33.42" y="-91.45" font-family="Times,serif" font-size="14.00">in</text>
</g>
<!-- n2&#45;&gt;c9 -->
<g id="edge2" class="edge">
<title>n2:e&#45;&gt;c9:w</title>
<path fill="none" stroke="black" d="M61.68,-96.5C75.54,-96.5 81.53,-96.5 91.58,-96.5"/>
<polygon fill="black" stroke="black" points="91.33,-100 101.33,-96.5 91.33,-93 91.33,-100"/>
</g>
<!-- n3 -->
<g id="node3" class="node">
<title>n3</title>
<polygon fill="none" stroke="black" points="62.41,-35.04 62.41,-49.96 45.43,-60.5 21.41,-60.5 4.43,-49.96 4.43,-35.04 21.41,-24.5 45.43,-24.5 62.41,-35.04"/>
<text text-anchor="middle" x="33.42" y="-37.45" font-family="Times,serif" font-size="14.00">load</text>
</g>
<!-- n3&#45;&gt;c9 -->
<g id="edge3" class="edge">
<title>n3:e&#45;&gt;c9:w</title>
<path fill="none" stroke="black" d="M63.69,-42.5C80.88,-42.5 81.75,-60.87 92.06,-68.62"/>
<polygon fill="black" stroke="black" points="90.81,-71.89 101.4,-71.55 92.91,-65.21 90.81,-71.89"/>
</g>
<!-- n4 -->
<g id="node4" class="node">
<title>n4</title>
<polygon fill="none" stroke="black" points="335.35,-89.04 335.35,-103.96 319.53,-114.5 297.16,-114.5 281.35,-103.96 281.35,-89.04 297.16,-78.5 319.53,-78.5 335.35,-89.04"/>
<text text-anchor="middle" x="308.35" y="-91.45" font-family="Times,serif" font-size="14.00">out</text>
</g>
<!-- c9&#45;&gt;n4 -->
<g id="edge4" class="edge">
<title>c9:e&#45;&gt;n4:w</title>
<path fill="none" stroke="black" d="M245.35,-96.5C256.72,-96.5 262.03,-96.5 269.9,-96.5"/>
<polygon fill="black" stroke="black" points="269.83,-100 279.83,-96.5 269.83,-93 269.83,-100"/>
</g>
</g>
</svg>
