<?xml version="1.0" encoding="UTF-8" standalone="no"?>
<!DOCTYPE svg PUBLIC "-//W3C//DTD SVG 1.1//EN"
 "http://www.w3.org/Graphics/SVG/1.1/DTD/svg11.dtd">
<!-- Generated by graphviz version 12.1.0 (20240811.2233)
 -->
<!-- Title: pc Pages: 1 -->
<svg width="2936pt" height="467pt"
 viewBox="0.00 0.00 2936.40 467.40" xmlns="http://www.w3.org/2000/svg" xmlns:xlink="http://www.w3.org/1999/xlink">
<g id="graph0" class="graph" transform="scale(1 1) rotate(0) translate(4 463.4)">
<title>pc</title>
<polygon fill="white" stroke="none" points="-4,4 -4,-463.4 2932.4,-463.4 2932.4,4 -4,4"/>
<text text-anchor="middle" x="1464.2" y="-7.2" font-family="Times,serif" font-size="14.00">pc</text>
<!-- n4 -->
<g id="node1" class="node">
<title>n4</title>
<polygon fill="none" stroke="black" points="681.25,-302.7 681.25,-317.61 661.67,-328.15 633.98,-328.15 614.4,-317.61 614.4,-302.7 633.98,-292.15 661.67,-292.15 681.25,-302.7"/>
<text text-anchor="middle" x="647.83" y="-305.1" font-family="Times,serif" font-size="14.00">clock</text>
</g>
<!-- c24 -->
<g id="node20" class="node">
<title>c24</title>
<polygon fill="none" stroke="black" points="743.42,-249.4 743.42,-322.9 1299.17,-322.9 1299.17,-249.4 743.42,-249.4"/>
<text text-anchor="middle" x="766.05" y="-305.6" font-family="Times,serif" font-size="14.00">clock</text>
<polyline fill="none" stroke="black" points="743.42,-298.4 788.67,-298.4"/>
<text text-anchor="middle" x="766.05" y="-281.1" font-family="Times,serif" font-size="14.00">in</text>
<polyline fill="none" stroke="black" points="743.42,-273.9 788.67,-273.9"/>
<text text-anchor="middle" x="766.05" y="-256.6" font-family="Times,serif" font-size="14.00">load</text>
<polyline fill="none" stroke="black" points="788.67,-249.4 788.67,-322.9"/>
<text text-anchor="middle" x="1027.3" y="-290.48" font-family="Times,serif" font-size="14.00">dff0</text>
<text text-anchor="middle" x="1027.3" y="-273.98" font-family="Times,serif" font-size="14.00">$paramod╲d_flipflop╲BUS_WIDTH=s32&#39;00000000000000000000000000010000</text>
<polyline fill="none" stroke="black" points="1265.92,-249.4 1265.92,-322.9"/>
<text text-anchor="middle" x="1282.55" y="-281.1" font-family="Times,serif" font-size="14.00">out</text>
</g>
<!-- n4&#45;&gt;c24 -->
<g id="edge18" class="edge">
<title>n4:e&#45;&gt;c24:w</title>
<path fill="none" stroke="black" d="M682.56,-310.15C705.39,-310.15 713.76,-310.51 732.07,-310.62"/>
<polygon fill="black" stroke="black" points="731.9,-314.12 741.91,-310.65 731.92,-307.12 731.9,-314.12"/>
</g>
<!-- n5 -->
<g id="node2" class="node">
<title>n5</title>
<polygon fill="none" stroke="black" points="2083.04,-199.7 2083.04,-214.61 2067.22,-225.15 2044.85,-225.15 2029.04,-214.61 2029.04,-199.7 2044.85,-189.15 2067.22,-189.15 2083.04,-199.7"/>
<text text-anchor="middle" x="2056.04" y="-202.1" font-family="Times,serif" font-size="14.00">in</text>
</g>
<!-- c30 -->
<g id="node23" class="node">
<title>c30</title>
<polygon fill="none" stroke="black" points="2187.4,-160.9 2187.4,-283.4 2708.65,-283.4 2708.65,-160.9 2187.4,-160.9"/>
<text text-anchor="middle" x="2204.03" y="-266.1" font-family="Times,serif" font-size="14.00">in0</text>
<polyline fill="none" stroke="black" points="2187.4,-258.9 2220.65,-258.9"/>
<text text-anchor="middle" x="2204.03" y="-241.6" font-family="Times,serif" font-size="14.00">in1</text>
<polyline fill="none" stroke="black" points="2187.4,-234.4 2220.65,-234.4"/>
<text text-anchor="middle" x="2204.03" y="-217.1" font-family="Times,serif" font-size="14.00">in2</text>
<polyline fill="none" stroke="black" points="2187.4,-209.9 2220.65,-209.9"/>
<text text-anchor="middle" x="2204.03" y="-192.6" font-family="Times,serif" font-size="14.00">in3</text>
<polyline fill="none" stroke="black" points="2187.4,-185.4 2220.65,-185.4"/>
<text text-anchor="middle" x="2204.03" y="-168.1" font-family="Times,serif" font-size="14.00">sel</text>
<polyline fill="none" stroke="black" points="2220.65,-160.9 2220.65,-283.4"/>
<text text-anchor="middle" x="2448.03" y="-226.48" font-family="Times,serif" font-size="14.00">mux0</text>
<text text-anchor="middle" x="2448.03" y="-209.98" font-family="Times,serif" font-size="14.00">$paramod╲mux4╲BUS_WIDTH=s32&#39;00000000000000000000000000010000</text>
<polyline fill="none" stroke="black" points="2675.4,-160.9 2675.4,-283.4"/>
<text text-anchor="middle" x="2692.03" y="-217.1" font-family="Times,serif" font-size="14.00">out</text>
</g>
<!-- n5&#45;&gt;c30 -->
<g id="edge19" class="edge">
<title>n5:e&#45;&gt;c30:w</title>
<path fill="none" stroke="black" stroke-width="3" d="M2084.29,-207.15C2126.62,-207.15 2139.03,-219.69 2176.21,-221.84"/>
<polygon fill="black" stroke="black" stroke-width="3" points="2172.77,-225.25 2182.87,-222.03 2172.97,-218.25 2172.77,-225.25"/>
</g>
<!-- n6 -->
<g id="node3" class="node">
<title>n6</title>
<polygon fill="none" stroke="black" points="122.37,-337.7 122.37,-352.61 106.55,-363.15 84.18,-363.15 68.37,-352.61 68.37,-337.7 84.18,-327.15 106.55,-327.15 122.37,-337.7"/>
<text text-anchor="middle" x="95.37" y="-340.1" font-family="Times,serif" font-size="14.00">inc</text>
</g>
<!-- c18 -->
<g id="node12" class="node">
<title>c18</title>
<polygon fill="none" stroke="black" points="226.73,-293.65 226.73,-342.65 371.48,-342.65 371.48,-293.65 226.73,-293.65"/>
<text text-anchor="middle" x="239.61" y="-325.35" font-family="Times,serif" font-size="14.00">A</text>
<polyline fill="none" stroke="black" points="226.73,-318.15 252.48,-318.15"/>
<text text-anchor="middle" x="239.61" y="-300.85" font-family="Times,serif" font-size="14.00">B</text>
<polyline fill="none" stroke="black" points="252.48,-293.65 252.48,-342.65"/>
<text text-anchor="middle" x="299.11" y="-321.35" font-family="Times,serif" font-size="14.00">$284</text>
<text text-anchor="middle" x="299.11" y="-304.85" font-family="Times,serif" font-size="14.00">$_ANDNOT_</text>
<polyline fill="none" stroke="black" points="345.73,-293.65 345.73,-342.65"/>
<text text-anchor="middle" x="358.61" y="-313.35" font-family="Times,serif" font-size="14.00">Y</text>
</g>
<!-- n6&#45;&gt;c18 -->
<g id="edge20" class="edge">
<title>n6:e&#45;&gt;c18:w</title>
<path fill="none" stroke="black" d="M123.62,-345.15C165.94,-345.15 178.37,-332.83 215.55,-330.71"/>
<polygon fill="black" stroke="black" points="215.32,-334.22 225.22,-330.45 215.13,-327.22 215.32,-334.22"/>
</g>
<!-- c20 -->
<g id="node15" class="node">
<title>c20</title>
<polygon fill="none" stroke="black" points="245.86,-361.65 245.86,-410.65 352.36,-410.65 352.36,-361.65 245.86,-361.65"/>
<text text-anchor="middle" x="258.73" y="-393.35" font-family="Times,serif" font-size="14.00">A</text>
<polyline fill="none" stroke="black" points="245.86,-386.15 271.61,-386.15"/>
<text text-anchor="middle" x="258.73" y="-368.85" font-family="Times,serif" font-size="14.00">B</text>
<polyline fill="none" stroke="black" points="271.61,-361.65 271.61,-410.65"/>
<text text-anchor="middle" x="299.11" y="-389.35" font-family="Times,serif" font-size="14.00">$286</text>
<text text-anchor="middle" x="299.11" y="-372.85" font-family="Times,serif" font-size="14.00">$_OR_</text>
<polyline fill="none" stroke="black" points="326.61,-361.65 326.61,-410.65"/>
<text text-anchor="middle" x="339.48" y="-381.35" font-family="Times,serif" font-size="14.00">Y</text>
</g>
<!-- n6&#45;&gt;c20 -->
<g id="edge21" class="edge">
<title>n6:e&#45;&gt;c20:w</title>
<path fill="none" stroke="black" d="M123.62,-345.15C178.45,-345.15 185.26,-391.37 233.53,-397.69"/>
<polygon fill="black" stroke="black" points="233.15,-401.18 243.35,-398.31 233.59,-394.19 233.15,-401.18"/>
</g>
<!-- c22 -->
<g id="node18" class="node">
<title>c22</title>
<polygon fill="none" stroke="black" points="245.86,-225.65 245.86,-274.65 352.36,-274.65 352.36,-225.65 245.86,-225.65"/>
<text text-anchor="middle" x="258.73" y="-257.35" font-family="Times,serif" font-size="14.00">A</text>
<polyline fill="none" stroke="black" points="245.86,-250.15 271.61,-250.15"/>
<text text-anchor="middle" x="258.73" y="-232.85" font-family="Times,serif" font-size="14.00">B</text>
<polyline fill="none" stroke="black" points="271.61,-225.65 271.61,-274.65"/>
<text text-anchor="middle" x="299.11" y="-253.35" font-family="Times,serif" font-size="14.00">$288</text>
<text text-anchor="middle" x="299.11" y="-236.85" font-family="Times,serif" font-size="14.00">$_OR_</text>
<polyline fill="none" stroke="black" points="326.61,-225.65 326.61,-274.65"/>
<text text-anchor="middle" x="339.48" y="-245.35" font-family="Times,serif" font-size="14.00">Y</text>
</g>
<!-- n6&#45;&gt;c22 -->
<g id="edge22" class="edge">
<title>n6:e&#45;&gt;c22:w</title>
<path fill="none" stroke="black" d="M123.62,-345.15C155.77,-345.15 164.04,-336.08 190.73,-318.15 215.71,-301.38 212.04,-271.53 233.5,-264.11"/>
<polygon fill="black" stroke="black" points="233.99,-267.58 243.36,-262.63 232.95,-260.65 233.99,-267.58"/>
</g>
<!-- n7 -->
<g id="node4" class="node">
<title>n7</title>
<polygon fill="none" stroke="black" points="2056.04,-171.15 1975.45,-153.15 2056.04,-135.15 2136.62,-153.15 2056.04,-171.15"/>
<text text-anchor="middle" x="2056.04" y="-148.1" font-family="Times,serif" font-size="14.00">incremented</text>
</g>
<!-- n7&#45;&gt;c30 -->
<g id="edge24" class="edge">
<title>n7:e&#45;&gt;c30:w</title>
<path fill="none" stroke="black" stroke-width="3" d="M2139.63,-153.15C2164.11,-153.15 2160.63,-184.84 2176.38,-194.74"/>
<polygon fill="black" stroke="black" stroke-width="3" points="2172.45,-197.32 2183.02,-196.49 2174.24,-190.55 2172.45,-197.32"/>
</g>
<!-- n8 -->
<g id="node5" class="node">
<title>n8</title>
<polygon fill="none" stroke="black" points="2832.48,-309.15 2744.65,-291.15 2832.48,-273.15 2920.3,-291.15 2832.48,-309.15"/>
<text text-anchor="middle" x="2832.48" y="-286.1" font-family="Times,serif" font-size="14.00">input_flipflop</text>
</g>
<!-- n8&#45;&gt;c24 -->
<g id="edge26" class="edge">
<title>n8:e&#45;&gt;c24:w</title>
<path fill="none" stroke="black" stroke-width="3" d="M2923.49,-291.15C2931.5,-291.15 2928.19,-303.53 2922.49,-309.15 2648.38,-579.47 2442.01,-345.15 2057.04,-345.15 1673.92,-345.15 1673.92,-345.15 1673.92,-345.15 1260.25,-345.15 1036.44,-615.4 743.42,-323.4 735.36,-315.37 730.08,-300.78 732.95,-292.44"/>
<polygon fill="black" stroke="black" stroke-width="3" points="732.24,-297.11 738.64,-288.67 728.37,-291.28 732.24,-297.11"/>
</g>
<!-- n9 -->
<g id="node6" class="node">
<title>n9</title>
<polygon fill="none" stroke="black" points="124.36,-283.7 124.36,-298.61 107.38,-309.15 83.36,-309.15 66.38,-298.61 66.38,-283.7 83.36,-273.15 107.38,-273.15 124.36,-283.7"/>
<text text-anchor="middle" x="95.37" y="-286.1" font-family="Times,serif" font-size="14.00">load</text>
</g>
<!-- n9&#45;&gt;c18 -->
<g id="edge27" class="edge">
<title>n9:e&#45;&gt;c18:w</title>
<path fill="none" stroke="black" d="M125.63,-291.15C166.96,-291.15 179.19,-303.37 215.29,-305.57"/>
<polygon fill="black" stroke="black" points="215.12,-309.07 225.22,-305.86 215.33,-302.07 215.12,-309.07"/>
</g>
<!-- n9&#45;&gt;c20 -->
<g id="edge28" class="edge">
<title>n9:e&#45;&gt;c20:w</title>
<path fill="none" stroke="black" d="M125.63,-291.15C156.95,-291.15 164.82,-300.55 190.73,-318.15 215.62,-335.06 212.02,-364.82 233.5,-372.21"/>
<polygon fill="black" stroke="black" points="232.95,-375.66 243.36,-373.68 233.99,-368.74 232.95,-375.66"/>
</g>
<!-- c23 -->
<g id="node19" class="node">
<title>c23</title>
<polygon fill="none" stroke="black" points="426.61,-222.65 426.61,-271.65 533.11,-271.65 533.11,-222.65 426.61,-222.65"/>
<text text-anchor="middle" x="439.48" y="-254.35" font-family="Times,serif" font-size="14.00">A</text>
<polyline fill="none" stroke="black" points="426.61,-247.15 452.36,-247.15"/>
<text text-anchor="middle" x="439.48" y="-229.85" font-family="Times,serif" font-size="14.00">B</text>
<polyline fill="none" stroke="black" points="452.36,-222.65 452.36,-271.65"/>
<text text-anchor="middle" x="479.86" y="-250.35" font-family="Times,serif" font-size="14.00">$289</text>
<text text-anchor="middle" x="479.86" y="-233.85" font-family="Times,serif" font-size="14.00">$_OR_</text>
<polyline fill="none" stroke="black" points="507.36,-222.65 507.36,-271.65"/>
<text text-anchor="middle" x="520.23" y="-242.35" font-family="Times,serif" font-size="14.00">Y</text>
</g>
<!-- n9&#45;&gt;c23 -->
<g id="edge29" class="edge">
<title>n9:e&#45;&gt;c23:w</title>
<path fill="none" stroke="black" d="M125.63,-291.15C181.58,-291.15 173.61,-233.71 226.73,-216.15 287.82,-195.97 308.04,-205.48 371.48,-216.15 392.27,-219.65 398.29,-230.22 414.2,-233.74"/>
<polygon fill="black" stroke="black" points="413.8,-237.22 424.1,-234.75 414.51,-230.26 413.8,-237.22"/>
</g>
<!-- n10 -->
<g id="node7" class="node">
<title>n10</title>
<polygon fill="none" stroke="black" points="647.83,-268.15 588.23,-250.15 647.83,-232.15 707.42,-250.15 647.83,-268.15"/>
<text text-anchor="middle" x="647.83" y="-245.1" font-family="Times,serif" font-size="14.00">load_dff</text>
</g>
<!-- n10&#45;&gt;c24 -->
<g id="edge5" class="edge">
<title>n10:e&#45;&gt;c24:w</title>
<path fill="none" stroke="black" d="M707.42,-250.15C719.62,-250.15 724.23,-256.23 732.28,-259.55"/>
<polygon fill="black" stroke="black" points="731.46,-262.95 741.93,-261.37 732.76,-256.07 731.46,-262.95"/>
</g>
<!-- n11 -->
<g id="node8" class="node">
<title>n11</title>
<polygon fill="none" stroke="black" points="1389.17,-278.7 1389.17,-293.61 1373.35,-304.15 1350.99,-304.15 1335.17,-293.61 1335.17,-278.7 1350.99,-268.15 1373.35,-268.15 1389.17,-278.7"/>
<text text-anchor="middle" x="1362.17" y="-281.1" font-family="Times,serif" font-size="14.00">out</text>
</g>
<!-- c25 -->
<g id="node21" class="node">
<title>c25</title>
<polygon fill="none" stroke="black" points="1425.17,-185.53 1425.17,-228.78 1924.67,-228.78 1924.67,-185.53 1425.17,-185.53"/>
<text text-anchor="middle" x="1438.42" y="-202.48" font-family="Times,serif" font-size="14.00">in</text>
<polyline fill="none" stroke="black" points="1451.67,-185.53 1451.67,-228.78"/>
<text text-anchor="middle" x="1671.55" y="-211.48" font-family="Times,serif" font-size="14.00">inc0</text>
<text text-anchor="middle" x="1671.55" y="-194.98" font-family="Times,serif" font-size="14.00">$paramod╲inc╲BUS_WIDTH=s32&#39;00000000000000000000000000010000</text>
<polyline fill="none" stroke="black" points="1891.42,-185.53 1891.42,-228.78"/>
<text text-anchor="middle" x="1908.05" y="-202.48" font-family="Times,serif" font-size="14.00">out</text>
</g>
<!-- n11&#45;&gt;c25 -->
<g id="edge7" class="edge">
<title>n11:e&#45;&gt;c25:w</title>
<path fill="none" stroke="black" stroke-width="3" d="M1389.17,-286.15C1422.8,-286.15 1395.71,-225.96 1414.17,-210.91"/>
<polygon fill="black" stroke="black" stroke-width="3" points="1412.3,-215.14 1420.83,-208.86 1410.24,-208.45 1412.3,-215.14"/>
</g>
<!-- n11&#45;&gt;c30 -->
<g id="edge8" class="edge">
<title>n11:e&#45;&gt;c30:w</title>
<path fill="none" stroke="black" stroke-width="3" d="M1389.17,-286.15C1643.17,-286.15 1706.67,-287.71 1960.67,-288.15 2045.44,-288.3 2068.69,-306.7 2151.4,-288.15 2164.08,-285.31 2168.01,-277.48 2176.21,-273.51"/>
<polygon fill="black" stroke="black" stroke-width="3" points="2173.9,-277.58 2182.96,-272.09 2172.45,-270.73 2173.9,-277.58"/>
</g>
<!-- n12 -->
<g id="node9" class="node">
<title>n12</title>
<polygon fill="none" stroke="black" points="126.02,-151.7 126.02,-166.61 108.06,-177.15 82.67,-177.15 64.71,-166.61 64.71,-151.7 82.67,-141.15 108.06,-141.15 126.02,-151.7"/>
<text text-anchor="middle" x="95.37" y="-154.1" font-family="Times,serif" font-size="14.00">reset</text>
</g>
<!-- c19 -->
<g id="node13" class="node">
<title>c19</title>
<polygon fill="none" stroke="black" points="426.61,-86.65 426.61,-135.65 533.11,-135.65 533.11,-86.65 426.61,-86.65"/>
<text text-anchor="middle" x="439.48" y="-118.35" font-family="Times,serif" font-size="14.00">A</text>
<polyline fill="none" stroke="black" points="426.61,-111.15 452.36,-111.15"/>
<text text-anchor="middle" x="439.48" y="-93.85" font-family="Times,serif" font-size="14.00">B</text>
<polyline fill="none" stroke="black" points="452.36,-86.65 452.36,-135.65"/>
<text text-anchor="middle" x="479.86" y="-114.35" font-family="Times,serif" font-size="14.00">$285</text>
<text text-anchor="middle" x="479.86" y="-97.85" font-family="Times,serif" font-size="14.00">$_OR_</text>
<polyline fill="none" stroke="black" points="507.36,-86.65 507.36,-135.65"/>
<text text-anchor="middle" x="520.23" y="-106.35" font-family="Times,serif" font-size="14.00">Y</text>
</g>
<!-- n12&#45;&gt;c19 -->
<g id="edge9" class="edge">
<title>n12:e&#45;&gt;c19:w</title>
<path fill="none" stroke="black" d="M127.31,-159.15C258.73,-159.15 288.69,-102.27 414.37,-99.05"/>
<polygon fill="black" stroke="black" points="414.14,-102.55 424.1,-98.92 414.05,-95.55 414.14,-102.55"/>
</g>
<!-- c21 -->
<g id="node16" class="node">
<title>c21</title>
<polygon fill="none" stroke="black" points="407.48,-154.65 407.48,-203.65 552.23,-203.65 552.23,-154.65 407.48,-154.65"/>
<text text-anchor="middle" x="420.36" y="-186.35" font-family="Times,serif" font-size="14.00">A</text>
<polyline fill="none" stroke="black" points="407.48,-179.15 433.23,-179.15"/>
<text text-anchor="middle" x="420.36" y="-161.85" font-family="Times,serif" font-size="14.00">B</text>
<polyline fill="none" stroke="black" points="433.23,-154.65 433.23,-203.65"/>
<text text-anchor="middle" x="479.86" y="-182.35" font-family="Times,serif" font-size="14.00">$287</text>
<text text-anchor="middle" x="479.86" y="-165.85" font-family="Times,serif" font-size="14.00">$_ANDNOT_</text>
<polyline fill="none" stroke="black" points="526.48,-154.65 526.48,-203.65"/>
<text text-anchor="middle" x="539.36" y="-174.35" font-family="Times,serif" font-size="14.00">Y</text>
</g>
<!-- n12&#45;&gt;c21 -->
<g id="edge10" class="edge">
<title>n12:e&#45;&gt;c21:w</title>
<path fill="none" stroke="black" d="M127.31,-159.15C247.99,-159.15 280.88,-166.43 396.07,-166.88"/>
<polygon fill="black" stroke="black" points="395.96,-170.38 405.97,-166.9 395.98,-163.38 395.96,-170.38"/>
</g>
<!-- n12&#45;&gt;c22 -->
<g id="edge11" class="edge">
<title>n12:e&#45;&gt;c22:w</title>
<path fill="none" stroke="black" d="M127.31,-159.15C186.14,-159.15 182.74,-228.08 233.55,-236.97"/>
<polygon fill="black" stroke="black" points="233.1,-240.44 243.35,-237.78 233.67,-233.46 233.1,-240.44"/>
</g>
<!-- n13 -->
<g id="node10" class="node">
<title>n13</title>
<polygon fill="none" stroke="black" points="1021.3,-129.15 991.38,-111.15 1021.3,-93.15 1051.21,-111.15 1021.3,-129.15"/>
<text text-anchor="middle" x="1021.3" y="-106.1" font-family="Times,serif" font-size="14.00">sel</text>
</g>
<!-- n13&#45;&gt;c30 -->
<g id="edge14" class="edge">
<title>n13:e&#45;&gt;c30:w</title>
<path fill="none" stroke="black" stroke-width="3" d="M1053.11,-111.15C1541.29,-111.15 1715.15,92.93 2151.4,-126.15 2170.69,-135.84 2164.86,-161.26 2176.66,-170.09"/>
<polygon fill="black" stroke="black" stroke-width="3" points="2172.46,-172.53 2183.04,-171.91 2174.38,-165.8 2172.46,-172.53"/>
</g>
<!-- n14 -->
<g id="node11" class="node">
<title>n14</title>
<polygon fill="none" stroke="black" points="479.86,-449.15 441.98,-431.15 479.86,-413.15 517.74,-431.15 479.86,-449.15"/>
<text text-anchor="middle" x="479.86" y="-426.1" font-family="Times,serif" font-size="14.00">zero</text>
</g>
<!-- c18&#45;&gt;c19 -->
<g id="edge16" class="edge">
<title>c18:e&#45;&gt;c19:w</title>
<path fill="none" stroke="black" d="M371.48,-318.4C457.21,-318.4 346.98,-141.26 414.34,-124.65"/>
<polygon fill="black" stroke="black" points="414.55,-128.15 424.1,-123.57 413.78,-121.19 414.55,-128.15"/>
</g>
<!-- x0 -->
<g id="node14" class="node">
<title>x0</title>
<path fill="none" stroke="black" d="M628.58,-93.15C628.58,-93.15 667.08,-93.15 667.08,-93.15 673.08,-93.15 679.08,-99.15 679.08,-105.15 679.08,-105.15 679.08,-117.15 679.08,-117.15 679.08,-123.15 673.08,-129.15 667.08,-129.15 667.08,-129.15 628.58,-129.15 628.58,-129.15 622.58,-129.15 616.58,-123.15 616.58,-117.15 616.58,-117.15 616.58,-105.15 616.58,-105.15 616.58,-99.15 622.58,-93.15 628.58,-93.15"/>
<text text-anchor="middle" x="647.83" y="-106.35" font-family="Times,serif" font-size="14.00">0:0 &#45; 0:0</text>
</g>
<!-- c19&#45;&gt;x0 -->
<g id="edge1" class="edge">
<title>c19:e&#45;&gt;x0:w</title>
<path fill="none" stroke="black" d="M546.87,-111.39C569.21,-111.35 580.45,-111.21 602.78,-111.17"/>
<polygon fill="none" stroke="black" points="547.01,-111.39 541.01,-115.4 535.01,-111.4 541.01,-107.4 547.01,-111.39"/>
<polygon fill="none" stroke="black" points="602.68,-111.17 608.67,-107.16 614.68,-111.16 608.68,-115.16 602.68,-111.17"/>
</g>
<!-- x0&#45;&gt;n13 -->
<g id="edge12" class="edge">
<title>x0:e&#45;&gt;n13:w</title>
<path fill="none" stroke="black" d="M680.08,-111.4C813.69,-111.4 849.94,-111.17 978.04,-111.16"/>
<polygon fill="black" stroke="black" points="977.96,-114.66 987.96,-111.15 977.96,-107.66 977.96,-114.66"/>
</g>
<!-- c20&#45;&gt;c21 -->
<g id="edge17" class="edge">
<title>c20:e&#45;&gt;c21:w</title>
<path fill="none" stroke="black" d="M353.36,-386.4C439.09,-386.4 328.86,-209.26 396.21,-192.65"/>
<polygon fill="black" stroke="black" points="396.42,-196.15 405.98,-191.57 395.66,-189.19 396.42,-196.15"/>
</g>
<!-- x1 -->
<g id="node17" class="node">
<title>x1</title>
<path fill="none" stroke="black" d="M628.58,-155.15C628.58,-155.15 667.08,-155.15 667.08,-155.15 673.08,-155.15 679.08,-161.15 679.08,-167.15 679.08,-167.15 679.08,-179.15 679.08,-179.15 679.08,-185.15 673.08,-191.15 667.08,-191.15 667.08,-191.15 628.58,-191.15 628.58,-191.15 622.58,-191.15 616.58,-185.15 616.58,-179.15 616.58,-179.15 616.58,-167.15 616.58,-167.15 616.58,-161.15 622.58,-155.15 628.58,-155.15"/>
<text text-anchor="middle" x="647.83" y="-168.35" font-family="Times,serif" font-size="14.00">0:0 &#45; 1:1</text>
</g>
<!-- c21&#45;&gt;x1 -->
<g id="edge2" class="edge">
<title>c21:e&#45;&gt;x1:w</title>
<path fill="none" stroke="black" d="M565.13,-178.91C579.76,-177.74 588.23,-174.78 602.92,-173.63"/>
<polygon fill="none" stroke="black" points="565.13,-178.91 559.28,-183.14 553.13,-179.37 558.98,-175.15 565.13,-178.91"/>
<polygon fill="none" stroke="black" points="602.68,-173.63 608.53,-169.41 614.68,-173.19 608.83,-177.41 602.68,-173.63"/>
</g>
<!-- x1&#45;&gt;n13 -->
<g id="edge13" class="edge">
<title>x1:e&#45;&gt;n13:w</title>
<path fill="none" stroke="black" d="M680.08,-173.4C816.51,-173.4 847.55,-114.51 978.22,-111.29"/>
<polygon fill="black" stroke="black" points="978.01,-114.79 987.96,-111.17 977.92,-107.8 978.01,-114.79"/>
</g>
<!-- c22&#45;&gt;c23 -->
<g id="edge3" class="edge">
<title>c22:e&#45;&gt;c23:w</title>
<path fill="none" stroke="black" d="M353.36,-250.4C381.55,-250.4 390.9,-257.23 414.23,-258.99"/>
<polygon fill="black" stroke="black" points="413.98,-262.49 424.1,-259.35 414.23,-255.49 413.98,-262.49"/>
</g>
<!-- c23&#45;&gt;n10 -->
<g id="edge4" class="edge">
<title>c23:e&#45;&gt;n10:w</title>
<path fill="none" stroke="black" d="M534.11,-247.4C553.87,-247.4 561.42,-249.26 576.8,-249.92"/>
<polygon fill="black" stroke="black" points="576.65,-253.42 586.72,-250.12 576.79,-246.42 576.65,-253.42"/>
</g>
<!-- c24&#45;&gt;n11 -->
<g id="edge6" class="edge">
<title>c24:e&#45;&gt;n11:w</title>
<path fill="none" stroke="black" stroke-width="3" d="M1299.17,-286.15C1310.55,-286.15 1315.86,-286.15 1323.72,-286.15"/>
<polygon fill="black" stroke="black" stroke-width="3" points="1320.63,-289.65 1330.63,-286.15 1320.63,-282.65 1320.63,-289.65"/>
</g>
<!-- c25&#45;&gt;n7 -->
<g id="edge23" class="edge">
<title>c25:e&#45;&gt;n7:w</title>
<path fill="none" stroke="black" stroke-width="3" d="M1924.67,-207.53C1952.32,-207.53 1943.97,-167.37 1961.5,-156.08"/>
<polygon fill="black" stroke="black" stroke-width="3" points="1959.3,-160.29 1968.06,-154.33 1957.5,-153.52 1959.3,-160.29"/>
</g>
<!-- v2 -->
<g id="node22" class="node">
<title>v2</title>
<ellipse fill="none" stroke="black" cx="2056.04" cy="-261.15" rx="95.37" ry="18"/>
<text text-anchor="middle" x="2056.04" y="-256.1" font-family="Times,serif" font-size="14.00">16&#39;0000000000000000</text>
</g>
<!-- v2&#45;&gt;c30 -->
<g id="edge30" class="edge">
<title>v2:e&#45;&gt;c30:w</title>
<path fill="none" stroke="black" stroke-width="3" d="M2151.4,-261.15C2164.07,-261.15 2168.25,-253.33 2176.4,-249.18"/>
<polygon fill="black" stroke="black" stroke-width="3" points="2174.02,-253.32 2182.98,-247.67 2172.45,-246.5 2174.02,-253.32"/>
</g>
<!-- c30&#45;&gt;n8 -->
<g id="edge25" class="edge">
<title>c30:e&#45;&gt;n8:w</title>
<path fill="none" stroke="black" stroke-width="3" d="M2708.65,-222.15C2738.65,-222.15 2717.68,-274.04 2734.14,-287.83"/>
<polygon fill="black" stroke="black" stroke-width="3" points="2729.74,-290.1 2740.33,-289.78 2731.85,-283.43 2729.74,-290.1"/>
</g>
<!-- v3 -->
<g id="node24" class="node">
<title>v3</title>
<ellipse fill="none" stroke="black" cx="95.37" cy="-431.15" rx="95.37" ry="18"/>
<text text-anchor="middle" x="95.37" y="-426.1" font-family="Times,serif" font-size="14.00">16&#39;0000000000000000</text>
</g>
<!-- x4 -->
<g id="node25" class="node">
<title>x4</title>
<ellipse fill="black" stroke="black" cx="299.11" cy="-431.15" rx="1.8" ry="1.8"/>
</g>
<!-- v3&#45;&gt;x4 -->
<g id="edge31" class="edge">
<title>v3:e&#45;&gt;x4:w</title>
<path fill="none" stroke="black" stroke-width="3" d="M190.73,-431.15C233.43,-431.15 246.86,-431.15 284.52,-431.15"/>
<polygon fill="black" stroke="black" stroke-width="3" points="281.29,-434.65 291.29,-431.15 281.29,-427.65 281.29,-434.65"/>
</g>
<!-- x4&#45;&gt;n14 -->
<g id="edge15" class="edge">
<title>x4:e&#45;&gt;n14:w</title>
<path fill="none" stroke="black" stroke-width="3" d="M302.39,-431.15C359.54,-431.15 376.59,-431.15 428.57,-431.15"/>
<polygon fill="black" stroke="black" stroke-width="3" points="425.3,-434.65 435.3,-431.15 425.3,-427.65 425.3,-434.65"/>
</g>
</g>
</svg>
