<svg xmlns="http://www.w3.org/2000/svg" xmlns:xlink="http://www.w3.org/1999/xlink" xmlns:s="https://github.com/nturley/netlistsvg" width="1147" height="408">
  <style>svg {
    stroke:#000;
    fill:none;
  }
  text {
    fill:#000;
    stroke:none;
    font-size:10px;
    font-weight: bold;
    font-family: "Courier New", monospace;
  }
  .nodelabel {
    text-anchor: middle;
  }
  .inputPortLabel {
    text-anchor: end;
  }
  .splitjoinBody {
    fill:#000;
  }</style>
  <g s:type="or" transform="translate(130,12)" s:width="30" s:height="25" id="cell_$or$src/or/or16.v:10$1">
    <s:alias val="$or"/>
    <s:alias val="$logic_or"/>
    <s:alias val="$_OR_"/>
    <path d="M0,25 L0,25 L15,25 A15 12.5 0 0 0 15,0 L0,0" class="cell_$or$src/or/or16.v:10$1"/>
    <path d="M0,0 A30 25 0 0 1 0,25" class="cell_$or$src/or/or16.v:10$1"/>
    <g s:x="3" s:y="5" s:pid="A"/>
    <g s:x="3" s:y="20" s:pid="B"/>
    <g s:x="30" s:y="12.5" s:pid="Y"/>
  </g>
  <g s:type="or" transform="translate(715,84.5)" s:width="30" s:height="25" id="cell_$or$src/or/or16.v:10$10">
    <s:alias val="$or"/>
    <s:alias val="$logic_or"/>
    <s:alias val="$_OR_"/>
    <path d="M0,25 L0,25 L15,25 A15 12.5 0 0 0 15,0 L0,0" class="cell_$or$src/or/or16.v:10$10"/>
    <path d="M0,0 A30 25 0 0 1 0,25" class="cell_$or$src/or/or16.v:10$10"/>
    <g s:x="3" s:y="5" s:pid="A"/>
    <g s:x="3" s:y="20" s:pid="B"/>
    <g s:x="30" s:y="12.5" s:pid="Y"/>
  </g>
  <g s:type="or" transform="translate(780,92)" s:width="30" s:height="25" id="cell_$or$src/or/or16.v:10$11">
    <s:alias val="$or"/>
    <s:alias val="$logic_or"/>
    <s:alias val="$_OR_"/>
    <path d="M0,25 L0,25 L15,25 A15 12.5 0 0 0 15,0 L0,0" class="cell_$or$src/or/or16.v:10$11"/>
    <path d="M0,0 A30 25 0 0 1 0,25" class="cell_$or$src/or/or16.v:10$11"/>
    <g s:x="3" s:y="5" s:pid="A"/>
    <g s:x="3" s:y="20" s:pid="B"/>
    <g s:x="30" s:y="12.5" s:pid="Y"/>
  </g>
  <g s:type="or" transform="translate(845,99.5)" s:width="30" s:height="25" id="cell_$or$src/or/or16.v:10$12">
    <s:alias val="$or"/>
    <s:alias val="$logic_or"/>
    <s:alias val="$_OR_"/>
    <path d="M0,25 L0,25 L15,25 A15 12.5 0 0 0 15,0 L0,0" class="cell_$or$src/or/or16.v:10$12"/>
    <path d="M0,0 A30 25 0 0 1 0,25" class="cell_$or$src/or/or16.v:10$12"/>
    <g s:x="3" s:y="5" s:pid="A"/>
    <g s:x="3" s:y="20" s:pid="B"/>
    <g s:x="30" s:y="12.5" s:pid="Y"/>
  </g>
  <g s:type="or" transform="translate(910,107)" s:width="30" s:height="25" id="cell_$or$src/or/or16.v:10$13">
    <s:alias val="$or"/>
    <s:alias val="$logic_or"/>
    <s:alias val="$_OR_"/>
    <path d="M0,25 L0,25 L15,25 A15 12.5 0 0 0 15,0 L0,0" class="cell_$or$src/or/or16.v:10$13"/>
    <path d="M0,0 A30 25 0 0 1 0,25" class="cell_$or$src/or/or16.v:10$13"/>
    <g s:x="3" s:y="5" s:pid="A"/>
    <g s:x="3" s:y="20" s:pid="B"/>
    <g s:x="30" s:y="12.5" s:pid="Y"/>
  </g>
  <g s:type="or" transform="translate(975,114.5)" s:width="30" s:height="25" id="cell_$or$src/or/or16.v:10$14">
    <s:alias val="$or"/>
    <s:alias val="$logic_or"/>
    <s:alias val="$_OR_"/>
    <path d="M0,25 L0,25 L15,25 A15 12.5 0 0 0 15,0 L0,0" class="cell_$or$src/or/or16.v:10$14"/>
    <path d="M0,0 A30 25 0 0 1 0,25" class="cell_$or$src/or/or16.v:10$14"/>
    <g s:x="3" s:y="5" s:pid="A"/>
    <g s:x="3" s:y="20" s:pid="B"/>
    <g s:x="30" s:y="12.5" s:pid="Y"/>
  </g>
  <g s:type="or" transform="translate(1040,122)" s:width="30" s:height="25" id="cell_$or$src/or/or16.v:10$15">
    <s:alias val="$or"/>
    <s:alias val="$logic_or"/>
    <s:alias val="$_OR_"/>
    <path d="M0,25 L0,25 L15,25 A15 12.5 0 0 0 15,0 L0,0" class="cell_$or$src/or/or16.v:10$15"/>
    <path d="M0,0 A30 25 0 0 1 0,25" class="cell_$or$src/or/or16.v:10$15"/>
    <g s:x="3" s:y="5" s:pid="A"/>
    <g s:x="3" s:y="20" s:pid="B"/>
    <g s:x="30" s:y="12.5" s:pid="Y"/>
  </g>
  <g s:type="or" transform="translate(195,215.5)" s:width="30" s:height="25" id="cell_$or$src/or/or16.v:10$2">
    <s:alias val="$or"/>
    <s:alias val="$logic_or"/>
    <s:alias val="$_OR_"/>
    <path d="M0,25 L0,25 L15,25 A15 12.5 0 0 0 15,0 L0,0" class="cell_$or$src/or/or16.v:10$2"/>
    <path d="M0,0 A30 25 0 0 1 0,25" class="cell_$or$src/or/or16.v:10$2"/>
    <g s:x="3" s:y="5" s:pid="A"/>
    <g s:x="3" s:y="20" s:pid="B"/>
    <g s:x="30" s:y="12.5" s:pid="Y"/>
  </g>
  <g s:type="or" transform="translate(260,223)" s:width="30" s:height="25" id="cell_$or$src/or/or16.v:10$3">
    <s:alias val="$or"/>
    <s:alias val="$logic_or"/>
    <s:alias val="$_OR_"/>
    <path d="M0,25 L0,25 L15,25 A15 12.5 0 0 0 15,0 L0,0" class="cell_$or$src/or/or16.v:10$3"/>
    <path d="M0,0 A30 25 0 0 1 0,25" class="cell_$or$src/or/or16.v:10$3"/>
    <g s:x="3" s:y="5" s:pid="A"/>
    <g s:x="3" s:y="20" s:pid="B"/>
    <g s:x="30" s:y="12.5" s:pid="Y"/>
  </g>
  <g s:type="or" transform="translate(325,230.5)" s:width="30" s:height="25" id="cell_$or$src/or/or16.v:10$4">
    <s:alias val="$or"/>
    <s:alias val="$logic_or"/>
    <s:alias val="$_OR_"/>
    <path d="M0,25 L0,25 L15,25 A15 12.5 0 0 0 15,0 L0,0" class="cell_$or$src/or/or16.v:10$4"/>
    <path d="M0,0 A30 25 0 0 1 0,25" class="cell_$or$src/or/or16.v:10$4"/>
    <g s:x="3" s:y="5" s:pid="A"/>
    <g s:x="3" s:y="20" s:pid="B"/>
    <g s:x="30" s:y="12.5" s:pid="Y"/>
  </g>
  <g s:type="or" transform="translate(390,238)" s:width="30" s:height="25" id="cell_$or$src/or/or16.v:10$5">
    <s:alias val="$or"/>
    <s:alias val="$logic_or"/>
    <s:alias val="$_OR_"/>
    <path d="M0,25 L0,25 L15,25 A15 12.5 0 0 0 15,0 L0,0" class="cell_$or$src/or/or16.v:10$5"/>
    <path d="M0,0 A30 25 0 0 1 0,25" class="cell_$or$src/or/or16.v:10$5"/>
    <g s:x="3" s:y="5" s:pid="A"/>
    <g s:x="3" s:y="20" s:pid="B"/>
    <g s:x="30" s:y="12.5" s:pid="Y"/>
  </g>
  <g s:type="or" transform="translate(455,245.5)" s:width="30" s:height="25" id="cell_$or$src/or/or16.v:10$6">
    <s:alias val="$or"/>
    <s:alias val="$logic_or"/>
    <s:alias val="$_OR_"/>
    <path d="M0,25 L0,25 L15,25 A15 12.5 0 0 0 15,0 L0,0" class="cell_$or$src/or/or16.v:10$6"/>
    <path d="M0,0 A30 25 0 0 1 0,25" class="cell_$or$src/or/or16.v:10$6"/>
    <g s:x="3" s:y="5" s:pid="A"/>
    <g s:x="3" s:y="20" s:pid="B"/>
    <g s:x="30" s:y="12.5" s:pid="Y"/>
  </g>
  <g s:type="or" transform="translate(520,253)" s:width="30" s:height="25" id="cell_$or$src/or/or16.v:10$7">
    <s:alias val="$or"/>
    <s:alias val="$logic_or"/>
    <s:alias val="$_OR_"/>
    <path d="M0,25 L0,25 L15,25 A15 12.5 0 0 0 15,0 L0,0" class="cell_$or$src/or/or16.v:10$7"/>
    <path d="M0,0 A30 25 0 0 1 0,25" class="cell_$or$src/or/or16.v:10$7"/>
    <g s:x="3" s:y="5" s:pid="A"/>
    <g s:x="3" s:y="20" s:pid="B"/>
    <g s:x="30" s:y="12.5" s:pid="Y"/>
  </g>
  <g s:type="or" transform="translate(585,260.5)" s:width="30" s:height="25" id="cell_$or$src/or/or16.v:10$8">
    <s:alias val="$or"/>
    <s:alias val="$logic_or"/>
    <s:alias val="$_OR_"/>
    <path d="M0,25 L0,25 L15,25 A15 12.5 0 0 0 15,0 L0,0" class="cell_$or$src/or/or16.v:10$8"/>
    <path d="M0,0 A30 25 0 0 1 0,25" class="cell_$or$src/or/or16.v:10$8"/>
    <g s:x="3" s:y="5" s:pid="A"/>
    <g s:x="3" s:y="20" s:pid="B"/>
    <g s:x="30" s:y="12.5" s:pid="Y"/>
  </g>
  <g s:type="or" transform="translate(650,268)" s:width="30" s:height="25" id="cell_$or$src/or/or16.v:10$9">
    <s:alias val="$or"/>
    <s:alias val="$logic_or"/>
    <s:alias val="$_OR_"/>
    <path d="M0,25 L0,25 L15,25 A15 12.5 0 0 0 15,0 L0,0" class="cell_$or$src/or/or16.v:10$9"/>
    <path d="M0,0 A30 25 0 0 1 0,25" class="cell_$or$src/or/or16.v:10$9"/>
    <g s:x="3" s:y="5" s:pid="A"/>
    <g s:x="3" s:y="20" s:pid="B"/>
    <g s:x="30" s:y="12.5" s:pid="Y"/>
  </g>
  <g s:type="outputExt" transform="translate(1105,124.5)" s:width="30" s:height="20" id="cell_out">
    <text x="15" y="-4" class="nodelabel cell_out" s:attribute="ref">out</text>
    <s:alias val="$_outputExt_"/>
    <path d="M30,0 L30,20 L15,20 L0,10 L15,0 Z" class="cell_out"/>
    <g s:x="0" s:y="10" s:pid="A"/>
  </g>
  <g s:type="inputExt" transform="translate(12,32)" s:width="30" s:height="20" id="cell_inputs">
    <text x="15" y="-4" class="nodelabel cell_inputs" s:attribute="ref">inputs</text>
    <s:alias val="$_inputExt_"/>
    <path d="M0,0 L0,20 L15,20 L30,10 L15,0 Z" class="cell_inputs"/>
    <g s:x="28" s:y="10" s:pid="Y"/>
  </g>
  <g s:type="split" transform="translate(83,54)" s:width="5" s:height="40" id="cell_$split$,3,4,5,6,7,8,9,10,11,12,13,14,15,16,17,18,">
    <rect width="5" height="320" class="splitjoinBody" s:generic="body"/>
    <s:alias val="$_split_"/>
    <g s:x="0" s:y="20" s:pid="in"/>
    <g transform="translate(4,10)" s:x="4" s:y="10" s:pid="out0">
      <text x="5" y="-4">0</text>
    </g>
    <g transform="translate(4,30)" s:x="4" s:y="10" s:pid="out0">
      <text x="5" y="-4">1</text>
    </g>
    <g transform="translate(4,50)" s:x="4" s:y="10" s:pid="out0">
      <text x="5" y="-4">10</text>
    </g>
    <g transform="translate(4,70)" s:x="4" s:y="10" s:pid="out0">
      <text x="5" y="-4">11</text>
    </g>
    <g transform="translate(4,90)" s:x="4" s:y="10" s:pid="out0">
      <text x="5" y="-4">12</text>
    </g>
    <g transform="translate(4,110)" s:x="4" s:y="10" s:pid="out0">
      <text x="5" y="-4">13</text>
    </g>
    <g transform="translate(4,130)" s:x="4" s:y="10" s:pid="out0">
      <text x="5" y="-4">14</text>
    </g>
    <g transform="translate(4,150)" s:x="4" s:y="10" s:pid="out0">
      <text x="5" y="-4">15</text>
    </g>
    <g transform="translate(4,170)" s:x="4" s:y="10" s:pid="out0">
      <text x="5" y="-4">2</text>
    </g>
    <g transform="translate(4,190)" s:x="4" s:y="10" s:pid="out0">
      <text x="5" y="-4">3</text>
    </g>
    <g transform="translate(4,210)" s:x="4" s:y="10" s:pid="out0">
      <text x="5" y="-4">4</text>
    </g>
    <g transform="translate(4,230)" s:x="4" s:y="10" s:pid="out0">
      <text x="5" y="-4">5</text>
    </g>
    <g transform="translate(4,250)" s:x="4" s:y="10" s:pid="out0">
      <text x="5" y="-4">6</text>
    </g>
    <g transform="translate(4,270)" s:x="4" s:y="10" s:pid="out0">
      <text x="5" y="-4">7</text>
    </g>
    <g transform="translate(4,290)" s:x="4" s:y="10" s:pid="out0">
      <text x="5" y="-4">8</text>
    </g>
    <g transform="translate(4,310)" s:x="4" s:y="10" s:pid="out0">
      <text x="5" y="-4">9</text>
    </g>
  </g>
  <line x1="87.5" x2="87.5" y1="64" y2="17" class="net_3"/>
  <line x1="87.5" x2="133" y1="17" y2="17" class="net_3"/>
  <line x1="87.5" x2="87.5" y1="84" y2="32" class="net_4"/>
  <line x1="87.5" x2="133" y1="32" y2="32" class="net_4"/>
  <line x1="680" x2="690" y1="280.5" y2="280.5" class="net_20"/>
  <line x1="690" x2="690" y1="280.5" y2="89.5" class="net_20"/>
  <line x1="690" x2="718" y1="89.5" y2="89.5" class="net_20"/>
  <line x1="88" x2="718" y1="104.5" y2="104.5" class="net_13"/>
  <line x1="745" x2="783" y1="97" y2="97" class="net_21"/>
  <line x1="88" x2="755" y1="124.5" y2="124.5" class="net_14"/>
  <line x1="755" x2="755" y1="124.5" y2="112" class="net_14"/>
  <line x1="755" x2="783" y1="112" y2="112" class="net_14"/>
  <line x1="810" x2="848" y1="104.5" y2="104.5" class="net_22"/>
  <line x1="88" x2="820" y1="144.5" y2="144.5" class="net_15"/>
  <line x1="820" x2="820" y1="144.5" y2="119.5" class="net_15"/>
  <line x1="820" x2="848" y1="119.5" y2="119.5" class="net_15"/>
  <line x1="875" x2="913" y1="112" y2="112" class="net_23"/>
  <line x1="88" x2="885" y1="164.5" y2="164.5" class="net_16"/>
  <line x1="885" x2="885" y1="164.5" y2="127" class="net_16"/>
  <line x1="885" x2="913" y1="127" y2="127" class="net_16"/>
  <line x1="940" x2="978" y1="119.5" y2="119.5" class="net_24"/>
  <line x1="88" x2="950" y1="184.5" y2="184.5" class="net_17"/>
  <line x1="950" x2="950" y1="184.5" y2="134.5" class="net_17"/>
  <line x1="950" x2="978" y1="134.5" y2="134.5" class="net_17"/>
  <line x1="1005" x2="1043" y1="127" y2="127" class="net_25"/>
  <line x1="88" x2="1015" y1="204.5" y2="204.5" class="net_18"/>
  <line x1="1015" x2="1015" y1="204.5" y2="142" class="net_18"/>
  <line x1="1015" x2="1043" y1="142" y2="142" class="net_18"/>
  <line x1="160" x2="170" y1="24.5" y2="24.5" class="net_19"/>
  <line x1="170" x2="170" y1="24.5" y2="220.5" class="net_19"/>
  <line x1="170" x2="198" y1="220.5" y2="220.5" class="net_19"/>
  <line x1="88" x2="105" y1="224.5" y2="224.5" class="net_5"/>
  <line x1="105" x2="105" y1="224.5" y2="235.5" class="net_5"/>
  <line x1="105" x2="198" y1="235.5" y2="235.5" class="net_5"/>
  <line x1="225" x2="263" y1="228" y2="228" class="net_26"/>
  <line x1="88" x2="105" y1="244.5" y2="244.5" class="net_6"/>
  <line x1="105" x2="105" y1="244.5" y2="250.5" class="net_6"/>
  <line x1="105" x2="235" y1="250.5" y2="250.5" class="net_6"/>
  <line x1="235" x2="235" y1="250.5" y2="243" class="net_6"/>
  <line x1="235" x2="263" y1="243" y2="243" class="net_6"/>
  <line x1="290" x2="328" y1="235.5" y2="235.5" class="net_27"/>
  <line x1="88" x2="300" y1="264.5" y2="264.5" class="net_7"/>
  <line x1="300" x2="300" y1="264.5" y2="250.5" class="net_7"/>
  <line x1="300" x2="328" y1="250.5" y2="250.5" class="net_7"/>
  <line x1="355" x2="393" y1="243" y2="243" class="net_28"/>
  <line x1="88" x2="365" y1="284.5" y2="284.5" class="net_8"/>
  <line x1="365" x2="365" y1="284.5" y2="258" class="net_8"/>
  <line x1="365" x2="393" y1="258" y2="258" class="net_8"/>
  <line x1="420" x2="458" y1="250.5" y2="250.5" class="net_29"/>
  <line x1="88" x2="430" y1="304.5" y2="304.5" class="net_9"/>
  <line x1="430" x2="430" y1="304.5" y2="265.5" class="net_9"/>
  <line x1="430" x2="458" y1="265.5" y2="265.5" class="net_9"/>
  <line x1="485" x2="523" y1="258" y2="258" class="net_30"/>
  <line x1="88" x2="495" y1="324.5" y2="324.5" class="net_10"/>
  <line x1="495" x2="495" y1="324.5" y2="273" class="net_10"/>
  <line x1="495" x2="523" y1="273" y2="273" class="net_10"/>
  <line x1="550" x2="588" y1="265.5" y2="265.5" class="net_31"/>
  <line x1="87.5" x2="87.5" y1="345" y2="384" class="net_11"/>
  <line x1="87.5" x2="560" y1="384" y2="384" class="net_11"/>
  <line x1="560" x2="560" y1="384" y2="280.5" class="net_11"/>
  <line x1="560" x2="588" y1="280.5" y2="280.5" class="net_11"/>
  <line x1="615" x2="653" y1="273" y2="273" class="net_32"/>
  <line x1="87.5" x2="87.5" y1="365" y2="395" class="net_12"/>
  <line x1="87.5" x2="625" y1="395" y2="395" class="net_12"/>
  <line x1="625" x2="625" y1="395" y2="288" class="net_12"/>
  <line x1="625" x2="653" y1="288" y2="288" class="net_12"/>
  <line x1="1070" x2="1105" y1="134.5" y2="134.5" class="net_2"/>
  <line x1="40" x2="83.5" y1="42" y2="42" class="net_3,4,5,6,7,8,9,10,11,12,13,14,15,16,17,18"/>
  <line x1="83.5" x2="83.5" y1="42" y2="74" class="net_3,4,5,6,7,8,9,10,11,12,13,14,15,16,17,18"/>
</svg>
