<svg xmlns="http://www.w3.org/2000/svg" xmlns:xlink="http://www.w3.org/1999/xlink" xmlns:s="https://github.com/nturley/netlistsvg" width="627" height="212">
  <style>svg {
    stroke:#000;
    fill:none;
  }
  text {
    fill:#000;
    stroke:none;
    font-size:10px;
    font-weight: bold;
    font-family: "Courier New", monospace;
  }
  .nodelabel {
    text-anchor: middle;
  }
  .inputPortLabel {
    text-anchor: end;
  }
  .splitjoinBody {
    fill:#000;
  }</style>
  <g s:type="and" transform="translate(130,12)" s:width="30" s:height="25" id="cell_$and$src/and/and8.v:10$1">
    <s:alias val="$and"/>
    <s:alias val="$logic_and"/>
    <s:alias val="$_AND_"/>
    <path d="M0,0 L0,25 L15,25 A15 12.5 0 0 0 15,0 Z" class="cell_$and$src/and/and8.v:10$1"/>
    <g s:x="0" s:y="5" s:pid="A"/>
    <g s:x="0" s:y="20" s:pid="B"/>
    <g s:x="30" s:y="12.5" s:pid="Y"/>
  </g>
  <g s:type="and" transform="translate(195,19.5)" s:width="30" s:height="25" id="cell_$and$src/and/and8.v:10$2">
    <s:alias val="$and"/>
    <s:alias val="$logic_and"/>
    <s:alias val="$_AND_"/>
    <path d="M0,0 L0,25 L15,25 A15 12.5 0 0 0 15,0 Z" class="cell_$and$src/and/and8.v:10$2"/>
    <g s:x="0" s:y="5" s:pid="A"/>
    <g s:x="0" s:y="20" s:pid="B"/>
    <g s:x="30" s:y="12.5" s:pid="Y"/>
  </g>
  <g s:type="and" transform="translate(260,27)" s:width="30" s:height="25" id="cell_$and$src/and/and8.v:10$3">
    <s:alias val="$and"/>
    <s:alias val="$logic_and"/>
    <s:alias val="$_AND_"/>
    <path d="M0,0 L0,25 L15,25 A15 12.5 0 0 0 15,0 Z" class="cell_$and$src/and/and8.v:10$3"/>
    <g s:x="0" s:y="5" s:pid="A"/>
    <g s:x="0" s:y="20" s:pid="B"/>
    <g s:x="30" s:y="12.5" s:pid="Y"/>
  </g>
  <g s:type="and" transform="translate(325,34.5)" s:width="30" s:height="25" id="cell_$and$src/and/and8.v:10$4">
    <s:alias val="$and"/>
    <s:alias val="$logic_and"/>
    <s:alias val="$_AND_"/>
    <path d="M0,0 L0,25 L15,25 A15 12.5 0 0 0 15,0 Z" class="cell_$and$src/and/and8.v:10$4"/>
    <g s:x="0" s:y="5" s:pid="A"/>
    <g s:x="0" s:y="20" s:pid="B"/>
    <g s:x="30" s:y="12.5" s:pid="Y"/>
  </g>
  <g s:type="and" transform="translate(390,42)" s:width="30" s:height="25" id="cell_$and$src/and/and8.v:10$5">
    <s:alias val="$and"/>
    <s:alias val="$logic_and"/>
    <s:alias val="$_AND_"/>
    <path d="M0,0 L0,25 L15,25 A15 12.5 0 0 0 15,0 Z" class="cell_$and$src/and/and8.v:10$5"/>
    <g s:x="0" s:y="5" s:pid="A"/>
    <g s:x="0" s:y="20" s:pid="B"/>
    <g s:x="30" s:y="12.5" s:pid="Y"/>
  </g>
  <g s:type="and" transform="translate(455,49.5)" s:width="30" s:height="25" id="cell_$and$src/and/and8.v:10$6">
    <s:alias val="$and"/>
    <s:alias val="$logic_and"/>
    <s:alias val="$_AND_"/>
    <path d="M0,0 L0,25 L15,25 A15 12.5 0 0 0 15,0 Z" class="cell_$and$src/and/and8.v:10$6"/>
    <g s:x="0" s:y="5" s:pid="A"/>
    <g s:x="0" s:y="20" s:pid="B"/>
    <g s:x="30" s:y="12.5" s:pid="Y"/>
  </g>
  <g s:type="and" transform="translate(520,57)" s:width="30" s:height="25" id="cell_$and$src/and/and8.v:10$7">
    <s:alias val="$and"/>
    <s:alias val="$logic_and"/>
    <s:alias val="$_AND_"/>
    <path d="M0,0 L0,25 L15,25 A15 12.5 0 0 0 15,0 Z" class="cell_$and$src/and/and8.v:10$7"/>
    <g s:x="0" s:y="5" s:pid="A"/>
    <g s:x="0" s:y="20" s:pid="B"/>
    <g s:x="30" s:y="12.5" s:pid="Y"/>
  </g>
  <g s:type="outputExt" transform="translate(585,59.5)" s:width="30" s:height="20" id="cell_out">
    <text x="15" y="-4" class="nodelabel cell_out" s:attribute="ref">out</text>
    <s:alias val="$_outputExt_"/>
    <path d="M30,0 L30,20 L15,20 L0,10 L15,0 Z" class="cell_out"/>
    <g s:x="0" s:y="10" s:pid="A"/>
  </g>
  <g s:type="inputExt" transform="translate(12,39.5)" s:width="30" s:height="20" id="cell_inputs">
    <text x="15" y="-4" class="nodelabel cell_inputs" s:attribute="ref">inputs</text>
    <s:alias val="$_inputExt_"/>
    <path d="M0,0 L0,20 L15,20 L30,10 L15,0 Z" class="cell_inputs"/>
    <g s:x="28" s:y="10" s:pid="Y"/>
  </g>
  <g s:type="split" transform="translate(83,29)" s:width="5" s:height="40" id="cell_$split$,3,4,5,6,7,8,9,10,">
    <rect width="5" height="160" class="splitjoinBody" s:generic="body"/>
    <s:alias val="$_split_"/>
    <g s:x="0" s:y="20" s:pid="in"/>
    <g transform="translate(4,10)" s:x="4" s:y="10" s:pid="out0">
      <text x="5" y="-4">0</text>
    </g>
    <g transform="translate(4,30)" s:x="4" s:y="10" s:pid="out0">
      <text x="5" y="-4">1</text>
    </g>
    <g transform="translate(4,50)" s:x="4" s:y="10" s:pid="out0">
      <text x="5" y="-4">2</text>
    </g>
    <g transform="translate(4,70)" s:x="4" s:y="10" s:pid="out0">
      <text x="5" y="-4">3</text>
    </g>
    <g transform="translate(4,90)" s:x="4" s:y="10" s:pid="out0">
      <text x="5" y="-4">4</text>
    </g>
    <g transform="translate(4,110)" s:x="4" s:y="10" s:pid="out0">
      <text x="5" y="-4">5</text>
    </g>
    <g transform="translate(4,130)" s:x="4" s:y="10" s:pid="out0">
      <text x="5" y="-4">6</text>
    </g>
    <g transform="translate(4,150)" s:x="4" s:y="10" s:pid="out0">
      <text x="5" y="-4">7</text>
    </g>
  </g>
  <line x1="87.5" x2="87.5" y1="39" y2="17" class="net_3"/>
  <line x1="87.5" x2="130" y1="17" y2="17" class="net_3"/>
  <line x1="88" x2="105" y1="59.5" y2="59.5" class="net_4"/>
  <line x1="105" x2="105" y1="59.5" y2="32" class="net_4"/>
  <line x1="105" x2="130" y1="32" y2="32" class="net_4"/>
  <line x1="160" x2="195" y1="24.5" y2="24.5" class="net_11"/>
  <line x1="88" x2="170" y1="79.5" y2="79.5" class="net_5"/>
  <line x1="170" x2="170" y1="79.5" y2="39.5" class="net_5"/>
  <line x1="170" x2="195" y1="39.5" y2="39.5" class="net_5"/>
  <line x1="225" x2="260" y1="32" y2="32" class="net_12"/>
  <line x1="88" x2="235" y1="99.5" y2="99.5" class="net_6"/>
  <line x1="235" x2="235" y1="99.5" y2="47" class="net_6"/>
  <line x1="235" x2="260" y1="47" y2="47" class="net_6"/>
  <line x1="290" x2="325" y1="39.5" y2="39.5" class="net_13"/>
  <line x1="88" x2="300" y1="119.5" y2="119.5" class="net_7"/>
  <line x1="300" x2="300" y1="119.5" y2="54.5" class="net_7"/>
  <line x1="300" x2="325" y1="54.5" y2="54.5" class="net_7"/>
  <line x1="355" x2="390" y1="47" y2="47" class="net_14"/>
  <line x1="88" x2="365" y1="139.5" y2="139.5" class="net_8"/>
  <line x1="365" x2="365" y1="139.5" y2="62" class="net_8"/>
  <line x1="365" x2="390" y1="62" y2="62" class="net_8"/>
  <line x1="420" x2="455" y1="54.5" y2="54.5" class="net_15"/>
  <line x1="88" x2="430" y1="159.5" y2="159.5" class="net_9"/>
  <line x1="430" x2="430" y1="159.5" y2="69.5" class="net_9"/>
  <line x1="430" x2="455" y1="69.5" y2="69.5" class="net_9"/>
  <line x1="485" x2="520" y1="62" y2="62" class="net_16"/>
  <line x1="87.5" x2="87.5" y1="180" y2="199" class="net_10"/>
  <line x1="87.5" x2="495" y1="199" y2="199" class="net_10"/>
  <line x1="495" x2="495" y1="199" y2="77" class="net_10"/>
  <line x1="495" x2="520" y1="77" y2="77" class="net_10"/>
  <line x1="550" x2="585" y1="69.5" y2="69.5" class="net_2"/>
  <line x1="40" x2="83" y1="49.5" y2="49.5" class="net_3,4,5,6,7,8,9,10"/>
</svg>
