<svg xmlns="http://www.w3.org/2000/svg" xmlns:xlink="http://www.w3.org/1999/xlink" xmlns:s="https://github.com/nturley/netlistsvg" width="261" height="119">
  <style>svg {
    stroke:#000;
    fill:none;
  }
  text {
    fill:#000;
    stroke:none;
    font-size:10px;
    font-weight: bold;
    font-family: "Courier New", monospace;
  }
  .nodelabel {
    text-anchor: middle;
  }
  .inputPortLabel {
    text-anchor: end;
  }
  .splitjoinBody {
    fill:#000;
  }</style>
  <g s:type="nand" transform="translate(77,77)" s:width="30" s:height="25" id="cell_$abc$94$auto$blifparse.cc:396:parse_blif$95">
    <s:alias val="$nand"/>
    <s:alias val="$logic_nand"/>
    <s:alias val="$_NAND_"/>
    <s:alias val="$_ANDNOT_"/>
    <path d="M0,0 L0,25 L15,25 A15 12.5 0 0 0 15,0 Z" class="cell_$abc$94$auto$blifparse.cc:396:parse_blif$95"/>
    <circle cx="34" cy="12.5" r="3" class="cell_$abc$94$auto$blifparse.cc:396:parse_blif$95"/>
    <g s:x="0" s:y="5" s:pid="A"/>
    <g s:x="0" s:y="20" s:pid="B"/>
    <g s:x="36" s:y="12.5" s:pid="Y"/>
  </g>
  <g s:type="nand" transform="translate(148,69.5)" s:width="30" s:height="25" id="cell_$abc$94$auto$blifparse.cc:396:parse_blif$96">
    <s:alias val="$nand"/>
    <s:alias val="$logic_nand"/>
    <s:alias val="$_NAND_"/>
    <s:alias val="$_ANDNOT_"/>
    <path d="M0,0 L0,25 L15,25 A15 12.5 0 0 0 15,0 Z" class="cell_$abc$94$auto$blifparse.cc:396:parse_blif$96"/>
    <circle cx="34" cy="12.5" r="3" class="cell_$abc$94$auto$blifparse.cc:396:parse_blif$96"/>
    <g s:x="0" s:y="5" s:pid="A"/>
    <g s:x="0" s:y="20" s:pid="B"/>
    <g s:x="36" s:y="12.5" s:pid="Y"/>
  </g>
  <g s:type="outputExt" transform="translate(219,72)" s:width="30" s:height="20" id="cell_out">
    <text x="15" y="-4" class="nodelabel cell_out" s:attribute="ref">out</text>
    <s:alias val="$_outputExt_"/>
    <path d="M30,0 L30,20 L15,20 L0,10 L15,0 Z" class="cell_out"/>
    <g s:x="0" s:y="10" s:pid="A"/>
  </g>
  <g s:type="inputExt" transform="translate(12,87)" s:width="30" s:height="20" id="cell_in1">
    <text x="15" y="-4" class="nodelabel cell_in1" s:attribute="ref">in1</text>
    <s:alias val="$_inputExt_"/>
    <path d="M0,0 L0,20 L15,20 L30,10 L15,0 Z" class="cell_in1"/>
    <g s:x="28" s:y="10" s:pid="Y"/>
  </g>
  <g s:type="inputExt" transform="translate(12,22)" s:width="30" s:height="20" id="cell_in2">
    <text x="15" y="-4" class="nodelabel cell_in2" s:attribute="ref">in2</text>
    <s:alias val="$_inputExt_"/>
    <path d="M0,0 L0,20 L15,20 L30,10 L15,0 Z" class="cell_in2"/>
    <g s:x="28" s:y="10" s:pid="Y"/>
  </g>
  <g s:type="inputExt" transform="translate(77,22)" s:width="30" s:height="20" id="cell_in3">
    <text x="15" y="-4" class="nodelabel cell_in3" s:attribute="ref">in3</text>
    <s:alias val="$_inputExt_"/>
    <path d="M0,0 L0,20 L15,20 L30,10 L15,0 Z" class="cell_in3"/>
    <g s:x="28" s:y="10" s:pid="Y"/>
  </g>
  <line x1="40" x2="52" y1="32" y2="32" class="net_4"/>
  <line x1="52" x2="52" y1="32" y2="82" class="net_4"/>
  <line x1="52" x2="77" y1="82" y2="82" class="net_4"/>
  <line x1="40" x2="77" y1="97" y2="97" class="net_3"/>
  <line x1="105" x2="123" y1="32" y2="32" class="net_5"/>
  <line x1="123" x2="123" y1="32" y2="74.5" class="net_5"/>
  <line x1="123" x2="148" y1="74.5" y2="74.5" class="net_5"/>
  <line x1="113" x2="148" y1="89.5" y2="89.5" class="net_6"/>
  <line x1="184" x2="219" y1="82" y2="82" class="net_2"/>
</svg>
