<svg xmlns="http://www.w3.org/2000/svg" xmlns:xlink="http://www.w3.org/1999/xlink" xmlns:s="https://github.com/nturley/netlistsvg" width="314" height="169">
  <style>svg {
    stroke:#000;
    fill:none;
  }
  text {
    fill:#000;
    stroke:none;
    font-size:10px;
    font-weight: bold;
    font-family: "Courier New", monospace;
  }
  .nodelabel {
    text-anchor: middle;
  }
  .inputPortLabel {
    text-anchor: end;
  }
  .splitjoinBody {
    fill:#000;
  }</style>
  <g s:type="and" transform="translate(142,67)" s:width="30" s:height="25" id="cell_$and$src/mux/mux.v:8$1">
    <s:alias val="$and"/>
    <s:alias val="$logic_and"/>
    <s:alias val="$_AND_"/>
    <path d="M0,0 L0,25 L15,25 A15 12.5 0 0 0 15,0 Z" class="cell_$and$src/mux/mux.v:8$1"/>
    <g s:x="0" s:y="5" s:pid="A"/>
    <g s:x="0" s:y="20" s:pid="B"/>
    <g s:x="30" s:y="12.5" s:pid="Y"/>
  </g>
  <g s:type="and" transform="translate(142,127)" s:width="30" s:height="25" id="cell_$and$src/mux/mux.v:9$2">
    <s:alias val="$and"/>
    <s:alias val="$logic_and"/>
    <s:alias val="$_AND_"/>
    <path d="M0,0 L0,25 L15,25 A15 12.5 0 0 0 15,0 Z" class="cell_$and$src/mux/mux.v:9$2"/>
    <g s:x="0" s:y="5" s:pid="A"/>
    <g s:x="0" s:y="20" s:pid="B"/>
    <g s:x="30" s:y="12.5" s:pid="Y"/>
  </g>
  <g s:type="not" transform="translate(77,12)" s:width="30" s:height="20" id="cell_$not$src/mux/mux.v:0$4">
    <s:alias val="$_NOT_"/>
    <s:alias val="$not"/>
    <s:alias val="$logic_not"/>
    <path d="M0,0 L0,20 L20,10 Z" class="cell_$not$src/mux/mux.v:0$4"/>
    <circle cx="23" cy="10" r="3" class="cell_$not$src/mux/mux.v:0$4"/>
    <g s:x="0" s:y="10" s:pid="A"/>
    <g s:x="25" s:y="10" s:pid="Y"/>
  </g>
  <g s:type="or" transform="translate(207,119.5)" s:width="30" s:height="25" id="cell_$or$src/mux/mux.v:10$3">
    <s:alias val="$or"/>
    <s:alias val="$logic_or"/>
    <s:alias val="$_OR_"/>
    <path d="M0,25 L0,25 L15,25 A15 12.5 0 0 0 15,0 L0,0" class="cell_$or$src/mux/mux.v:10$3"/>
    <path d="M0,0 A30 25 0 0 1 0,25" class="cell_$or$src/mux/mux.v:10$3"/>
    <g s:x="3" s:y="5" s:pid="A"/>
    <g s:x="3" s:y="20" s:pid="B"/>
    <g s:x="30" s:y="12.5" s:pid="Y"/>
  </g>
  <g s:type="inputExt" transform="translate(77,77)" s:width="30" s:height="20" id="cell_in1">
    <text x="15" y="-4" class="nodelabel cell_in1" s:attribute="ref">in1</text>
    <s:alias val="$_inputExt_"/>
    <path d="M0,0 L0,20 L15,20 L30,10 L15,0 Z" class="cell_in1"/>
    <g s:x="28" s:y="10" s:pid="Y"/>
  </g>
  <g s:type="inputExt" transform="translate(77,137)" s:width="30" s:height="20" id="cell_in2">
    <text x="15" y="-4" class="nodelabel cell_in2" s:attribute="ref">in2</text>
    <s:alias val="$_inputExt_"/>
    <path d="M0,0 L0,20 L15,20 L30,10 L15,0 Z" class="cell_in2"/>
    <g s:x="28" s:y="10" s:pid="Y"/>
  </g>
  <g s:type="inputExt" transform="translate(12,106)" s:width="30" s:height="20" id="cell_sel">
    <text x="15" y="-4" class="nodelabel cell_sel" s:attribute="ref">sel</text>
    <s:alias val="$_inputExt_"/>
    <path d="M0,0 L0,20 L15,20 L30,10 L15,0 Z" class="cell_sel"/>
    <g s:x="28" s:y="10" s:pid="Y"/>
  </g>
  <g s:type="outputExt" transform="translate(272,122)" s:width="30" s:height="20" id="cell_R">
    <text x="15" y="-4" class="nodelabel cell_R" s:attribute="ref">R</text>
    <s:alias val="$_outputExt_"/>
    <path d="M30,0 L30,20 L15,20 L0,10 L15,0 Z" class="cell_R"/>
    <g s:x="0" s:y="10" s:pid="A"/>
  </g>
  <line x1="102" x2="117" y1="22" y2="22" class="net_6"/>
  <line x1="117" x2="117" y1="22" y2="72" class="net_6"/>
  <line x1="117" x2="142" y1="72" y2="72" class="net_6"/>
  <line x1="105" x2="142" y1="87" y2="87" class="net_2"/>
  <line x1="40" x2="117" y1="116" y2="116" class="net_4"/>
  <line x1="117" x2="117" y1="116" y2="132" class="net_4"/>
  <line x1="117" x2="142" y1="132" y2="132" class="net_4"/>
  <line x1="40" x2="52" y1="116" y2="116" class="net_4"/>
  <line x1="52" x2="52" y1="116" y2="22" class="net_4"/>
  <circle cx="52" cy="116" r="2" style="fill:#000" class="net_4"/>
  <line x1="52" x2="77" y1="22" y2="22" class="net_4"/>
  <line x1="105" x2="142" y1="147" y2="147" class="net_3"/>
  <line x1="172" x2="182" y1="79.5" y2="79.5" class="net_7"/>
  <line x1="182" x2="182" y1="79.5" y2="124.5" class="net_7"/>
  <line x1="182" x2="210" y1="124.5" y2="124.5" class="net_7"/>
  <line x1="172" x2="210" y1="139.5" y2="139.5" class="net_8"/>
  <line x1="237" x2="272" y1="132" y2="132" class="net_5"/>
</svg>
